<?xml version="1.0" encoding="UTF-8"?>
<svg id="Layer_1" data-name="Layer 1" xmlns="http://www.w3.org/2000/svg" viewBox="0 0 523.86 474.17">
  <defs>
    <style>
      .cls-1 {
        fill: #f16623;
      }

      .cls-2 {
        fill: #f06724;
      }
    </style>
  </defs>
  <g>
    <path class="cls-2" d="M523.79,211.09c-.01-11.28-4.55-21.7-10.53-30.35-7.78-11.26-19.16-17.38-32.29-18.03-9.81-31.18-27.82-58.47-49.62-81.52-.54-8.16-3.17-15.32-9.32-20.63C374.07,19.14,323.85.41,261.85,0c-28.64-.19-56.31,3.61-83.41,13.58-29.29,10.77-56.1,27.58-79.37,49.28-5.31,4.95-6.1,12.28-6.94,19.2-21.16,22.54-38.82,50.39-47.54,81.35C18.88,162.66,0,187.97,0,214.06v57.3c.01,21.75,12.75,40.93,31.55,48.44,10.73,4.29,21.46,4.71,32.86,4.21,2.48-.11,4.69-2.12,4.69-5.23l-.03-115.54c0-14.02,6.55-25.65,12.71-37.91-3.09-2.22-7.04-2.56-11.39-2.89,8.96-23.33,22.06-44.73,38.6-62.51,6.97,1.09,13.43.4,18.92-4.25,30.51-25.91,66.25-43.04,105.14-48.35,58.13-7.94,116.47,7.71,162.2,47.07,5.84,5.03,12.5,7.01,20.11,5.28,16.51,17.98,29.51,39.05,39.07,62.38-4.23.29-8.02.66-11.53,3.32,8.97,14.97,13.22,30.66,13.19,48.21l-.17,85.96c-.01,7.39-1.96,14.51,1.44,20.8,5.32,2.07,11.94,1.38,18.78.47-7.14,40.95-38.64,74.74-74.09,91.63-8.17-8.97-19.53-11.01-29.88-6.19l-33.48,15.6c-8.11,3.78-11.87,14.16-12.11,22.55-.59,20.7,20.52,33.94,32.63,28.58l37.95-16.8c8.27-3.66,12.59-12.63,13.19-21.53l15.8-9.03c35.46-20.26,68.33-65.31,71.69-109.93,14.99-8.04,26.02-23.69,26-42.24l-.07-62.35Z"/>
    <path class="cls-2" d="M505.87,211.09c-.01-11.28-4.24-21.7-9.81-30.35-7.25-11.26-17.85-17.38-30.09-18.03-9.14-31.18-25.92-58.47-46.22-81.52-.5-8.16-2.96-15.32-8.68-20.63C366.4,19.14,319.61.42,261.85.01c-26.68-.19-52.46,3.61-77.7,13.58-27.28,10.77-52.26,27.58-73.94,49.28-4.94,4.95-5.68,12.28-6.46,19.2-19.71,22.54-36.16,50.39-44.29,81.35-23.95-.75-41.55,24.56-41.54,50.65v57.3c.01,21.75,11.88,40.93,29.39,48.44,10,4.29,19.99,4.71,30.61,4.21,2.31-.11,4.37-2.12,4.37-5.23l-.03-115.54c0-14.02,6.1-25.65,11.84-37.91-2.88-2.22-6.56-2.56-10.61-2.89,8.35-23.33,20.55-44.73,35.96-62.51,6.49,1.09,12.51.4,17.62-4.25,28.42-25.91,61.72-43.04,97.95-48.35,54.15-7.94,108.5,7.71,151.11,47.06,5.44,5.03,11.65,7,18.74,5.28,15.38,17.98,27.49,39.05,36.4,62.38-3.94.29-7.47.66-10.74,3.32,8.36,14.97,12.32,30.66,12.29,48.21l-.15,85.96c-.01,7.39-1.83,14.51,1.34,20.8,4.95,2.07,11.12,1.38,17.5.47-6.65,40.95-36,74.74-69.02,91.63-7.61-8.97-18.2-11.01-27.84-6.19l-31.19,15.6c-7.56,3.78-11.06,14.16-11.29,22.55-.55,20.7,19.11,33.94,30.39,28.58l35.36-16.8c7.71-3.66,11.73-12.63,12.28-21.53l14.72-9.03c33.03-20.26,63.66-65.3,66.78-109.93,13.96-8.04,24.24-23.69,24.23-42.24l-.06-62.35Z"/>
  </g>
  <path class="cls-1" d="M261.93,88.81c-85.58,0-154.95,69.37-154.95,154.95,0,36.3,12.49,69.69,33.4,96.1l-19.78,80.71,75.84-36.35c19.89,9.29,42.08,14.49,65.49,14.49,85.58,0,154.95-69.37,154.95-154.95s-69.37-154.95-154.95-154.95ZM181.2,192.8l58.05-33.53,67.1.02,6.69,25.14-58.01,33.54h-67.12s-6.73-25.17-6.73-25.17ZM195.56,246.46l66.98.02,29.17-16.78,7.14,26.61-29.14,16.81-66.99-.02-7.16-26.64ZM284.52,328.25l-67.05-.02-7.12-26.63h67.03s58.05-33.52,58.05-33.52l7.23,26.54-58.14,33.62Z"/>
</svg>