<?xml version="1.0" encoding="UTF-8"?>
<svg id="Layer_1" xmlns="http://www.w3.org/2000/svg" version="1.1" viewBox="0 0 566.93 566.93">
  <!-- Generator: Adobe Illustrator 30.1.0, SVG Export Plug-In . SVG Version: 2.1.1 Build 136)  -->
  <path d="M482.18,346.57l.17-82.39c.03-16.82-4.34-31.85-13.55-46.21,3.6-2.55,7.5-2.9,11.84-3.18-9.82-22.36-23.18-42.56-40.14-59.79-7.82,1.65-14.66-.25-20.66-5.06-46.99-37.72-106.92-52.72-166.65-45.11-39.95,5.09-76.68,21.52-108.02,46.35-5.63,4.46-12.27,5.13-19.43,4.08-16.99,17.04-30.46,37.55-39.66,59.92,4.47.31,8.53.64,11.7,2.77-6.34,11.75-13.06,22.9-13.06,36.34l.03,110.74c0,2.98-2.27,4.91-4.82,5.01-11.71.49-22.73.08-33.76-4.03-19.31-7.2-32.4-25.58-32.4-46.43v-54.93c-.01-25.01,19.39-49.27,45.81-48.55,8.96-29.67,27.11-56.37,48.84-77.97.86-6.63,1.67-13.66,7.13-18.4,23.91-20.8,51.46-36.91,81.55-47.23,27.84-9.55,56.26-13.19,85.69-13.01,63.69.39,115.29,18.33,164.57,58.03,6.32,5.09,9.02,11.95,9.58,19.77,22.39,22.1,40.9,48.26,50.97,78.14,13.5.62,25.19,6.49,33.18,17.28,6.14,8.29,10.8,18.28,10.81,29.09l.07,59.76c.02,17.78-11.32,32.78-26.72,40.48-3.45,42.78-37.22,85.95-73.65,105.37l-16.23,8.65c-.61,8.54-5.05,17.13-13.55,20.64l-38.99,16.1c-12.44,5.14-34.13-7.55-33.52-27.39.25-8.04,4.11-17.99,12.45-21.61l34.4-14.95c10.63-4.62,22.31-2.67,30.7,5.93,36.41-16.18,68.78-48.58,76.12-87.82-7.03.88-13.84,1.53-19.3-.45-3.5-6.03-1.5-12.85-1.48-19.93Z"/>
  <path d="M335.43,441.43l-124.8.15-68.75,33.28c-4.72,2.28-9.71,4.66-15.11,4.16-18.42-1.73-30.36-22.05-30.32-37.71l.34-149.6c.17-75.73,71.33-137.28,145.13-137.24l94,.05c20.03.01,39.24,4.89,57.16,13.36,20.56,9.73,37.86,24.01,51.28,42.26,26.69,36.29,32.84,87.72,21.93,130.64-6.78,26.67-22.28,49.41-43.27,66.85-24.86,20.66-54.89,31.24-87.59,33.8ZM329.85,415.33c35.02-3.69,64.65-14.92,88.4-40.43,25.57-27.45,29.72-64.03,24.74-100.15-1.47-10.66-4.48-20.99-8.39-30.96-5.25-13.39-12.82-24.76-22.49-35.05-15.41-16.4-34.66-26.8-56.89-30.37-3.96-.63-7.46-1.51-11.76-1.51l-113.17.04-18.34,4.13c-34.73,7.83-73.02,37.69-80.43,75.53l-3.81,19.46-.09,29.76,3.97,19.26c9.79,47.5,54.74,82.54,101.84,88.65,3.88,1.21,7.43,1.73,11.61,1.72l84.82-.08Z"/>
  <path d="M344.21,332.69c-4.3,6.92-10.06,11.97-17.2,15.99-24.56,13.83-55.25,14.04-80.09.73-8.22-4.41-25.2-16.72-19.28-26.73,1.78-3.01,5.25-4.47,9.14-4.4,4.55.09,6.79,2.93,10.03,5.78,22.23,19.54,56.69,19.25,78.74-.62,4.59-4.14,9.19-7.17,15.49-3.89,4.52,2.35,6.26,8.16,3.16,13.15Z"/>
  <path d="M350.99,285.15c-5.94,6.22-14.52,8.81-22.32,5.1-9.58-4.56-14.72-14.65-13.73-25.44,1.23-13.42,13.72-23.99,27.6-19.96,9.96,2.89,16.1,13.36,14.93,23.22.73,6.78-1.83,12.2-6.49,17.08Z"/>
  <path d="M250.69,284.06c-4.91,5.84-12.2,9.03-19.18,7.41-10.25-2.37-17-11.75-17.78-21.29-.85-10.4,4.02-20.64,14.03-24.73,4.56-1.86,11.36-1.89,15.86.49,13.9,7.33,17.19,26.08,7.07,38.12Z"/>
</svg>