<?xml version="1.0" encoding="UTF-8"?>
<svg id="Layer_1" data-name="Layer 1" xmlns="http://www.w3.org/2000/svg" viewBox="0 0 538.2 454.48">
  <defs>
    <style>
      .cls-1 {
        fill: #f06724;
      }
    </style>
  </defs>
  <path class="cls-1" d="M538.13,202.32c-.01-10.81-4.68-20.8-10.81-29.09-7.99-10.79-19.68-16.66-33.18-17.28-10.08-29.88-28.58-56.04-50.97-78.14-.56-7.82-3.26-14.68-9.58-19.77C384.31,18.34,332.71.4,269.02,0c-29.43-.18-57.85,3.46-85.69,13.01-30.09,10.33-57.64,26.43-81.55,47.23-5.45,4.74-6.26,11.77-7.13,18.4-21.74,21.6-39.88,48.3-48.84,77.97C19.4,155.9,0,180.16,0,205.17v54.93c.01,20.85,13.1,39.23,32.41,46.43,11.03,4.11,22.04,4.52,33.76,4.03,2.55-.11,4.82-2.03,4.82-5.01l-.03-110.74c0-13.43,6.72-24.58,13.06-36.34-3.18-2.13-7.23-2.46-11.7-2.77,9.21-22.37,22.67-42.87,39.66-59.92,7.16,1.05,13.8.39,19.43-4.08,31.34-24.83,68.07-41.26,108.02-46.35,59.72-7.61,119.66,7.39,166.65,45.11,6,4.82,12.84,6.71,20.66,5.06,16.96,17.23,30.32,37.43,40.14,59.79-4.34.28-8.24.63-11.84,3.18,9.22,14.35,13.59,29.39,13.55,46.21l-.17,82.39c-.01,7.08-2.02,13.91,1.48,19.93,5.46,1.98,12.26,1.32,19.3.45-7.34,39.25-39.7,71.64-76.12,87.82-8.39-8.6-20.07-10.56-30.7-5.93l-34.4,14.95c-8.33,3.62-12.2,13.57-12.45,21.61-.61,19.84,21.08,32.53,33.52,27.39l38.99-16.1c8.5-3.51,12.94-12.1,13.55-20.64l16.23-8.65c36.43-19.42,70.2-62.59,73.65-105.37,15.4-7.7,26.74-22.71,26.72-40.48l-.07-59.76Z"/>
  <path class="cls-1" d="M430.62,150.68c-13.42-18.25-30.72-32.53-51.28-42.26-17.92-8.48-37.13-13.35-57.16-13.36l-94-.05c-73.8-.04-144.96,61.51-145.13,137.24l-.34,149.6c-.04,15.66,11.91,35.98,30.32,37.71,5.4.51,10.39-1.87,15.11-4.16l68.75-33.28,67.47-.08c2.98.13,5.98.19,8.99.19s6.3-.08,9.41-.22l38.92-.05c32.71-2.56,62.73-13.14,87.59-33.8,20.99-17.44,36.49-40.18,43.27-66.85,10.92-42.92,4.76-94.35-21.93-130.64ZM207.82,174.3l62.34-16.71,62.39,16.74-.04,25.04-62.29,16.73-62.41-16.72.02-25.08ZM270.08,244.48l31.3-8.33v26.52s-31.28,8.37-31.28,8.37l-62.29-16.71-.02-26.55,62.28,16.71ZM270.15,325.99l-62.34-16.72v-26.53s62.34,16.7,62.34,16.7l62.33-16.7.11,26.48-62.44,16.77Z"/>
</svg>